<svg xmlns="http://www.w3.org/2000/svg" xmlns:xlink="http://www.w3.org/1999/xlink" width="129px" height="39px" viewBox="0 0 129 39" version="1.1">
    <!-- Generator: sketchtool 52 (66869) - http://www.bohemiancoding.com/sketch -->
    <title>BD0AA1AB-A4A0-4635-86AB-D4BA2FC2CBEE</title>
    <desc>Created with sketchtool.</desc>
    <g id="Symbols" stroke="none" stroke-width="1" fill="none" fill-rule="evenodd">
        <g id="footer" transform="translate(-115.000000, -48.000000)">
            <g id="Group-47">
                <g id="Group-44" transform="translate(115.000000, 48.000000)">
                    <g id="logotype-envybox-horizontal-white">
                        <path d="M43.4028809,23.8609657 L38.6302097,23.8812513 L38.6302097,19.671204 L44.3736732,19.671204 L44.3736732,16.6252395 L38.6302097,16.6252395 L38.6302097,12.5759168 L42.7353635,12.5556311 L42.7353635,14.1269868 L45.9244396,14.1269868 L45.9244396,11.538229 C45.9244396,10.2056196 45.2491058,9.5283918 43.9125078,9.5283918 L33.7496728,9.5283918 L33.7496728,12.5774772 L35.2566675,12.5774772 L35.2566675,24.8986534 C35.2566675,26.2312629 35.9413809,26.9069302 37.2904851,26.9069302 L44.5393801,26.9069302 C45.8728516,26.9069302 46.5513119,26.2312629 46.5513119,24.8986534 L46.5513119,22.3130165 L43.3825584,22.3130165 L43.4028809,23.8609657 Z M60.4141004,18.8902075 C60.4141004,15.5618046 58.8883464,13.8765374 55.8774834,13.8765374 C54.1297447,13.8765374 52.8087793,14.5958968 51.9364732,15.483783 C51.8020318,14.8533682 51.3439929,14.1542944 49.9730029,14.1542944 L47.2888639,14.1542944 L47.2888639,17.1300394 L48.7442706,17.0582595 C48.7442706,17.0582595 48.7489605,17.0723034 48.7489605,17.1081934 L48.7489605,26.9077104 L52.0537187,26.9077104 L52.0537187,20.9000447 C52.0537187,20.2945969 52.1115598,19.8498736 52.2428747,19.4738093 C52.6774644,17.9648709 53.9327723,16.9911609 55.4382038,16.9911609 C56.6856953,16.9911609 57.1077789,17.5981692 57.1077789,19.3989085 L57.1077789,24.8994336 C57.1077789,26.2304827 57.7831127,26.9077104 59.1197107,26.9077104 L61.8726337,26.9077104 L61.8726337,23.9304049 L60.4141004,23.9506906 L60.4141004,18.8902075 Z M74.6650495,17.1297274 L73.8143166,17.1297274 C73.6110912,17.1297274 73.6017115,17.1593756 73.5766992,17.2311555 L69.8482941,26.9073983 L66.5279031,26.9073983 L62.7744857,17.2311555 C62.7541631,17.1702986 62.7369671,17.1546943 62.7369671,17.1515734 C62.7369671,17.1515734 62.6978853,17.1297274 62.5618806,17.1297274 L61.8005669,17.1297274 L61.8005669,14.1539823 L63.487338,14.1539823 C64.7488989,14.1539823 65.3445058,14.5518926 65.7665894,15.6754041 L68.2349968,22.2479464 L70.6783918,15.6769646 C71.1004754,14.5518926 71.6976455,14.1539823 72.9592065,14.1539823 L74.6650495,14.1539823 L76.5175275,14.1533581 C77.6821656,14.1533581 78.2527601,14.5481476 78.6998561,15.6638569 L81.274566,22.0834768 L83.6616832,15.6763404 C84.0478115,14.5699936 84.6418551,14.1533581 85.8471383,14.1533581 L87.7230654,14.1533581 L87.7230654,17.1306636 L86.8898411,17.1306636 C86.7444567,17.1306636 86.7100647,17.1493888 86.7100647,17.1493888 C86.7100647,17.1493888 86.6819258,17.1727953 86.6365909,17.2742234 L82.0343165,28.6794257 C81.2276678,30.6393291 79.6643952,31.7628406 77.7446965,31.7628406 C75.7906058,31.7628406 74.6384739,30.4801649 74.5900125,30.4255498 L74.3398888,30.141551 L76.0485458,27.1564434 L76.3909025,28.2034937 C76.5378501,28.3548557 77.0349708,28.7605682 77.6290143,28.7605682 C78.4950673,28.7605682 78.9859349,27.9070115 79.2001033,27.3983105 L79.645636,26.3340954 L75.7280749,17.2742234 C75.68274,17.1743557 75.6561644,17.1447075 75.648348,17.1415866 C75.648348,17.1415866 75.6108294,17.1306636 75.4982738,17.1306636 L74.6650495,17.1306636 Z M95.1955083,16.8984712 C96.8588303,16.8984712 97.9765702,18.3668384 97.9765702,20.5545649 C97.9765702,22.7376102 96.8306914,24.2075378 95.125161,24.2075378 C93.2132786,24.2075378 92.3440991,22.325656 92.3440991,20.5748506 C92.3440991,18.2747728 93.410251,16.8984712 95.1955083,16.8984712 M95.6347879,13.8759132 C94.1293564,13.8759132 93.0866536,14.401779 92.4160096,14.9401283 L92.4160096,11.5368247 C92.4160096,10.2057756 91.729733,9.52854784 90.3790655,9.52854784 L87.6495915,9.52854784 L87.6495915,12.5074138 L89.103435,12.4356339 C89.103435,12.4356339 89.1065616,12.4496778 89.1065616,12.4871281 L89.1065616,26.9070863 L92.2987642,26.9070863 L92.2987642,26.0925404 C92.9678448,26.6433731 93.9933517,27.1848433 95.4487584,27.1848433 C98.9114072,27.1848433 101.32979,24.4478444 101.32979,20.529598 C101.32979,16.5504948 99.0411588,13.8759132 95.6347879,13.8759132 M109.219158,24.1841313 C107.224422,24.1841313 105.720554,22.603413 105.720554,20.507752 C105.720554,18.4354974 107.224422,16.8750648 109.219158,16.8750648 C111.213893,16.8750648 112.717762,18.4354974 112.717762,20.507752 C112.717762,22.603413 111.213893,24.1841313 109.219158,24.1841313 M109.219158,13.8774736 C105.325046,13.8774736 102.38922,16.7268237 102.38922,20.507752 C102.38922,24.3136472 105.325046,27.1848433 109.219158,27.1848433 C113.061682,27.1848433 116.070981,24.2512299 116.070981,20.507752 C116.070981,16.789241 113.061682,13.8774736 109.219158,13.8774736 M124.436522,20.3713701 L126.475029,17.3300869 C126.586022,17.1771645 126.639173,17.1303515 127.017485,17.1303515 L128.219641,17.1303515 L128.219641,14.1546065 L126.254608,14.1546065 C124.972724,14.1546065 124.455281,14.4464074 123.742429,15.5824023 L122.376129,17.7748102 L121.008265,15.5808419 C120.295413,14.4464074 119.779533,14.1546065 118.497649,14.1546065 L116.529489,14.1546065 L116.529489,17.1303515 L117.733209,17.1303515 C118.106831,17.1303515 118.152166,17.1724832 118.264722,17.3363286 L120.314172,20.3729306 L116.005793,26.9064621 L119.829558,26.9064621 L122.376129,22.9492049 L124.921136,26.9064621 L128.743338,26.9064621 L124.436522,20.3713701 Z" id="Envybox" fill="#26262A"/>
                        <g id="logo-icecream" transform="translate(0.000000, 0.354767)">
                            <path d="M15.6781451,32.8977804 L14.1723168,36.8987802 C13.6908609,38.178013 12.2579641,38.8268266 10.9718522,38.3479459 C10.3020653,38.0985523 9.77266952,37.5743805 9.51888747,36.9093187 L3.27775679,20.5537977 C2.85136281,19.4363887 3.41641234,18.186738 4.53983023,17.7626246 C4.78646965,17.6695132 5.04807764,17.6217928 5.31188484,17.6217928 L18.2898115,17.6217928 C19.4914269,17.6217928 20.4655287,18.5906844 20.4655287,19.7858727 C20.4655287,20.0449572 20.4187549,20.3019364 20.3274341,20.5445766 L20.3274341,20.5445766 C20.0092059,21.3901118 19.2003242,21.9499525 18.2968869,21.9499525 L10.327632,21.9499525 C9.55516496,21.9499525 8.92895669,22.5728113 8.92895669,23.3411467 C8.92895669,24.109482 9.55516496,24.7323408 10.327632,24.7323408 L16.1221531,24.7323408 C17.1466002,24.7323408 17.9770787,25.5628193 17.9770787,26.5872664 L17.9770787,26.5872664 C17.9770787,27.6117135 17.1466002,28.442192 16.1221531,28.442192 L12.1925325,28.442192 C11.4200654,28.442192 10.7938571,29.0650508 10.7938571,29.8333861 C10.7938571,30.6017215 11.4200654,31.2245803 12.1925325,31.2245803 L14.5200952,31.2245803 C15.2034664,31.2245803 15.7574482,31.7785621 15.7574482,32.4619333 C15.7574482,32.6108033 15.7305834,32.7584516 15.6781451,32.8977804 Z" id="Combined-Shape" fill="#FFE53B"/>
                            <g id="Group-3" transform="translate(0.338229, 0.000000)">
                                <path d="M10.2154618,9.93608885 C10.2154618,12.7350132 7.93522458,15.0045333 5.12459417,15.0045333 C2.31245268,15.0045333 0.0322154318,12.7350132 0.0322154318,9.93608885 C0.0322154318,7.13866849 2.31245268,4.86914842 5.12459417,4.86914842 C7.93522458,4.86914842 10.2154618,7.13866849 10.2154618,9.93608885" id="Fill-550" fill="#40BDFF"/>
                                <path d="M19.152596,7.19100732 C19.152596,11.0953639 15.9715151,14.2582537 12.0480811,14.2582537 C8.12313524,14.2582537 4.94205431,11.0953639 4.94205431,7.19100732 C4.94205431,3.28665072 8.12313524,0.122256935 12.0480811,0.122256935 C15.9715151,0.122256935 19.152596,3.28665072 19.152596,7.19100732" id="Fill-551" fill="#FF5E86"/>
                                <path d="M22.6435859,10.6984611 C22.6435859,13.0762684 20.7063665,15.0043829 18.3173306,15.0043829 C15.9282948,15.0043829 13.9895642,13.0762684 13.9895642,10.6984611 C13.9895642,8.3191498 15.9282948,6.39253933 18.3173306,6.39253933 C20.7063665,6.39253933 22.6435859,8.3191498 22.6435859,10.6984611" id="Fill-552" fill="#FF92BB"/>
                            </g>
                        </g>
                    </g>
                </g>
            </g>
        </g>
    </g>
</svg>
